<mxfile host="app.diagrams.net" modified="2022-07-14T13:18:11.581Z" agent="5.0 (Macintosh; Intel Mac OS X 10_15_7) AppleWebKit/537.36 (KHTML, like Gecko) Chrome/103.0.0.0 Safari/537.36" etag="C6Aa0UoXFm7E55f4NXGj" version="20.1.1" type="github">
  <diagram id="AuyJKW6Z9QMwssKA2RAX" name="Page-1">
    <mxGraphModel dx="2893" dy="744" grid="1" gridSize="10" guides="1" tooltips="1" connect="1" arrows="1" fold="1" page="1" pageScale="1" pageWidth="827" pageHeight="1169" math="0" shadow="0">
      <root>
        <mxCell id="0" />
        <mxCell id="1" parent="0" />
        <mxCell id="SVJI3TzL_P_j5bB9WOgK-3" value="" style="edgeStyle=orthogonalEdgeStyle;rounded=0;orthogonalLoop=1;jettySize=auto;html=1;" edge="1" parent="1" source="SVJI3TzL_P_j5bB9WOgK-1" target="SVJI3TzL_P_j5bB9WOgK-2">
          <mxGeometry relative="1" as="geometry" />
        </mxCell>
        <mxCell id="SVJI3TzL_P_j5bB9WOgK-1" value="website" style="rounded=0;whiteSpace=wrap;html=1;" vertex="1" parent="1">
          <mxGeometry x="-533" y="260" width="120" height="60" as="geometry" />
        </mxCell>
        <mxCell id="SVJI3TzL_P_j5bB9WOgK-5" value="" style="edgeStyle=orthogonalEdgeStyle;rounded=0;orthogonalLoop=1;jettySize=auto;html=1;" edge="1" parent="1" source="SVJI3TzL_P_j5bB9WOgK-2" target="SVJI3TzL_P_j5bB9WOgK-4">
          <mxGeometry relative="1" as="geometry">
            <Array as="points">
              <mxPoint x="-273" y="170" />
            </Array>
          </mxGeometry>
        </mxCell>
        <mxCell id="SVJI3TzL_P_j5bB9WOgK-7" value="" style="edgeStyle=orthogonalEdgeStyle;rounded=0;orthogonalLoop=1;jettySize=auto;html=1;" edge="1" parent="1" source="SVJI3TzL_P_j5bB9WOgK-2" target="SVJI3TzL_P_j5bB9WOgK-6">
          <mxGeometry relative="1" as="geometry">
            <Array as="points">
              <mxPoint x="-100" y="290" />
              <mxPoint x="-100" y="290" />
            </Array>
          </mxGeometry>
        </mxCell>
        <mxCell id="SVJI3TzL_P_j5bB9WOgK-9" value="" style="edgeStyle=orthogonalEdgeStyle;rounded=0;orthogonalLoop=1;jettySize=auto;html=1;" edge="1" parent="1" source="SVJI3TzL_P_j5bB9WOgK-2">
          <mxGeometry relative="1" as="geometry">
            <mxPoint x="-88" y="410" as="targetPoint" />
            <Array as="points">
              <mxPoint x="-230" y="410" />
            </Array>
          </mxGeometry>
        </mxCell>
        <mxCell id="SVJI3TzL_P_j5bB9WOgK-17" value="" style="edgeStyle=orthogonalEdgeStyle;rounded=0;orthogonalLoop=1;jettySize=auto;html=1;" edge="1" parent="1" source="SVJI3TzL_P_j5bB9WOgK-2" target="SVJI3TzL_P_j5bB9WOgK-16">
          <mxGeometry relative="1" as="geometry">
            <Array as="points">
              <mxPoint x="-300" y="520" />
            </Array>
          </mxGeometry>
        </mxCell>
        <mxCell id="SVJI3TzL_P_j5bB9WOgK-2" value="blog page" style="ellipse;whiteSpace=wrap;html=1;rounded=0;" vertex="1" parent="1">
          <mxGeometry x="-333" y="260" width="120" height="60" as="geometry" />
        </mxCell>
        <mxCell id="SVJI3TzL_P_j5bB9WOgK-12" value="" style="edgeStyle=orthogonalEdgeStyle;rounded=0;orthogonalLoop=1;jettySize=auto;html=1;" edge="1" parent="1" source="SVJI3TzL_P_j5bB9WOgK-4" target="SVJI3TzL_P_j5bB9WOgK-6">
          <mxGeometry relative="1" as="geometry" />
        </mxCell>
        <mxCell id="SVJI3TzL_P_j5bB9WOgK-14" value="" style="edgeStyle=orthogonalEdgeStyle;rounded=0;orthogonalLoop=1;jettySize=auto;html=1;" edge="1" parent="1" source="SVJI3TzL_P_j5bB9WOgK-4" target="SVJI3TzL_P_j5bB9WOgK-13">
          <mxGeometry relative="1" as="geometry" />
        </mxCell>
        <mxCell id="SVJI3TzL_P_j5bB9WOgK-4" value="category data" style="rhombus;whiteSpace=wrap;html=1;rounded=0;" vertex="1" parent="1">
          <mxGeometry x="-96.5" y="130" width="197" height="80" as="geometry" />
        </mxCell>
        <mxCell id="SVJI3TzL_P_j5bB9WOgK-11" value="" style="edgeStyle=orthogonalEdgeStyle;rounded=0;orthogonalLoop=1;jettySize=auto;html=1;" edge="1" parent="1" source="SVJI3TzL_P_j5bB9WOgK-6" target="SVJI3TzL_P_j5bB9WOgK-13">
          <mxGeometry relative="1" as="geometry">
            <mxPoint x="220" y="290" as="targetPoint" />
          </mxGeometry>
        </mxCell>
        <mxCell id="SVJI3TzL_P_j5bB9WOgK-6" value="subcat d" style="rhombus;whiteSpace=wrap;html=1;rounded=0;" vertex="1" parent="1">
          <mxGeometry x="-81.5" y="250" width="167" height="80" as="geometry" />
        </mxCell>
        <mxCell id="SVJI3TzL_P_j5bB9WOgK-15" style="edgeStyle=orthogonalEdgeStyle;rounded=0;orthogonalLoop=1;jettySize=auto;html=1;entryX=0.5;entryY=1;entryDx=0;entryDy=0;" edge="1" parent="1" target="SVJI3TzL_P_j5bB9WOgK-13">
          <mxGeometry relative="1" as="geometry">
            <mxPoint x="92" y="410" as="sourcePoint" />
          </mxGeometry>
        </mxCell>
        <mxCell id="SVJI3TzL_P_j5bB9WOgK-13" value="blog cat page" style="ellipse;whiteSpace=wrap;html=1;rounded=0;" vertex="1" parent="1">
          <mxGeometry x="219" y="140" width="120" height="60" as="geometry" />
        </mxCell>
        <mxCell id="SVJI3TzL_P_j5bB9WOgK-16" value="author page" style="whiteSpace=wrap;html=1;rounded=0;" vertex="1" parent="1">
          <mxGeometry x="-58" y="500" width="120" height="60" as="geometry" />
        </mxCell>
      </root>
    </mxGraphModel>
  </diagram>
</mxfile>
